Coordinates
version=1
nRows=10
nColumns=40
inDegrees=yes

Units are S.I. units (second, meters, Newtons, ...)
If the header above contains a line with 'inDegrees', this indicates whether rotational values are in degrees (yes) or radians (no).

endheader
time	pelvis_tilt	pelvis_list	pelvis_rotation	pelvis_tx	pelvis_ty	pelvis_tz	hip_flexion_r	hip_adduction_r	hip_rotation_r	knee_angle_r	knee_angle_r_beta	ankle_angle_r	subtalar_angle_r	mtp_angle_r	hip_flexion_l	hip_adduction_l	hip_rotation_l	knee_angle_l	knee_angle_l_beta	ankle_angle_l	subtalar_angle_l	mtp_angle_l	lumbar_extension	lumbar_bending	lumbar_rotation	arm_flex_r	arm_add_r	arm_rot_r	elbow_flex_r	pro_sup_r	wrist_flex_r	wrist_dev_r	arm_flex_l	arm_add_l	arm_rot_l	elbow_flex_l	pro_sup_l	wrist_flex_l	wrist_dev_l
      0.00000000	      1.04942184	     -4.31064588	    -89.89199527	      0.19639346	      0.99333434	      0.27482405	     15.18510534	     -3.05165786	     -0.32551906	     44.84157457	      0.78263312	     25.54179549	      0.00000000	      0.00000000	      4.38141657	    -15.06872734	      9.70169879	     13.05958768	      0.22793280	     15.28650978	      0.00000000	      0.00000000	    -15.34933544	      0.96122436	     -5.34440744	    -10.35631990	    -18.18037694	     20.49283416	    106.25597983	     82.35153890	      0.00000000	      0.00000000	     -2.38481725	    -17.83478955	     29.02006196	     99.32856420	     53.20475731	      0.00000000	      0.00000000
      0.00277778	      1.06104887	     -4.19295896	    -89.89254014	      0.19640720	      0.99306591	      0.27473313	     15.35392199	     -3.05998231	     -0.30600914	     44.90856606	      0.78380234	     25.55785374	      0.00000000	      0.00000000	      4.56359882	    -15.05454415	      9.70951663	     13.14580542	      0.22943759	     15.31433291	      0.00000000	      0.00000000	    -15.23687790	      0.94753912	     -5.33980051	    -10.37852689	    -18.17440342	     20.46578374	    106.27678455	     82.43276691	      0.00000000	      0.00000000	     -2.36916617	    -17.84803830	     29.04778916	     99.33697136	     53.18610236	      0.00000000	      0.00000000
      0.00555556	      1.03858129	     -4.19518833	    -89.89226498	      0.19640650	      0.99304904	      0.27478862	     15.34329443	     -3.02847325	     -0.30213499	     44.90199145	      0.78368759	     25.56856133	      0.00000000	      0.00000000	      4.56616784	    -15.07813444	      9.72696149	     13.16170270	      0.22971505	     15.30543435	      0.00000000	      0.00000000	    -15.24713210	      0.97273090	     -5.34842815	    -10.37453832	    -18.18571319	     20.47426148	    106.28209892	     82.42764043	      0.00000000	      0.00000000	     -2.37379922	    -17.84859996	     29.05329385	     99.33883939	     53.15582375	      0.00000000	      0.00000000
      0.00833333	      1.03510154	     -4.20891006	    -89.89226494	      0.19641638	      0.99305714	      0.27479148	     15.33057566	     -3.03314100	     -0.31801888	     44.90738860	      0.78378179	     25.57547386	      0.00000000	      0.00000000	      4.56016128	    -15.08258020	      9.72547882	     13.17275623	      0.22990797	     15.32465945	      0.00000000	      0.00000000	    -15.27275128	      0.97596195	     -5.35610712	    -10.36372851	    -18.17308360	     20.46675918	    106.26885922	     82.46397619	      0.00000000	      0.00000000	     -2.35929487	    -17.85267243	     29.04938971	     99.34760487	     53.14238726	      0.00000000	      0.00000000
      0.01111111	      1.10048402	     -4.15262740	    -89.89273389	      0.19645642	      0.99291201	      0.27476205	     15.42140419	     -3.09873109	     -0.27113128	     44.95978277	      0.78469624	     25.58701605	      0.00000000	      0.00000000	      4.65913731	    -15.00261055	      9.71809897	     13.24514140	      0.23117133	     15.31960488	      0.00000000	      0.00000000	    -15.22295174	      0.90609972	     -5.36309788	    -10.38398707	    -18.16817555	     20.45978585	    106.29982517	     82.34959928	      0.00000000	      0.00000000	     -2.34204846	    -17.86833120	     29.07013124	     99.34362750	     53.15061108	      0.00000000	      0.00000000
      0.01388889	      1.13701091	     -4.05581405	    -89.89253047	      0.19644741	      0.99270250	      0.27469809	     15.56445850	     -3.13867026	     -0.25455294	     45.02160340	      0.78577521	     25.63164010	      0.00000000	      0.00000000	      4.81162479	    -14.95572269	      9.73949635	     13.32560808	      0.23257574	     15.38442035	      0.00000000	      0.00000000	    -15.13148543	      0.86076666	     -5.39734831	    -10.37489761	    -18.14484409	     20.46340828	    106.25917308	     82.41290544	      0.00000000	      0.00000000	     -2.35925231	    -17.88907942	     29.06154220	     99.36273454	     53.20906439	      0.00000000	      0.00000000
      0.01666667	      1.07425211	     -4.14541814	    -89.89248399	      0.19646668	      0.99285430	      0.27478870	     15.43568266	     -3.06862338	     -0.27794047	     44.97483359	      0.78495893	     25.61617414	      0.00000000	      0.00000000	      4.69450719	    -15.02813785	      9.74766162	     13.29337151	      0.23201310	     15.35021319	      0.00000000	      0.00000000	    -15.23794063	      0.93462502	     -5.37823364	    -10.37482036	    -18.16351420	     20.45246538	    106.29492536	     82.42349192	      0.00000000	      0.00000000	     -2.32637178	    -17.87773665	     29.08468799	     99.35318411	     53.11987296	      0.00000000	      0.00000000
      0.01944444	      1.07706953	     -4.06734070	    -89.89245400	      0.19647304	      0.99267957	      0.27475843	     15.54123590	     -3.06545013	     -0.25489055	     45.00973283	      0.78556803	     25.62780475	      0.00000000	      0.00000000	      4.81644653	    -15.02185695	      9.76052678	     13.35563854	      0.23309987	     15.36759728	      0.00000000	      0.00000000	    -15.16414022	      0.93185028	     -5.38483699	    -10.38253661	    -18.15869428	     20.44111565	    106.28961117	     82.48085379	      0.00000000	      0.00000000	     -2.32426425	    -17.88021905	     29.08685239	     99.34715675	     53.14612708	      0.00000000	      0.00000000
      0.02222222	      1.08689741	     -4.07452936	    -89.89257495	      0.19647209	      0.99265430	      0.27477895	     15.53914161	     -3.07344907	     -0.24737512	     45.02519315	      0.78583787	     25.63185312	      0.00000000	      0.00000000	      4.82030648	    -15.01049777	      9.76210336	     13.38002273	      0.23352545	     15.37373636	      0.00000000	      0.00000000	    -15.18223382	      0.92101070	     -5.39182806	    -10.38341217	    -18.15407267	     20.44088116	    106.29590427	     82.46217580	      0.00000000	      0.00000000	     -2.30991173	    -17.89434500	     29.10702623	     99.35734867	     53.11597135	      0.00000000	      0.00000000
      0.02500000	      1.25834561	     -3.94883363	    -89.89266166	      0.19661771	      0.99238541	      0.27462425	     15.75381837	     -3.28082240	     -0.20866638	     45.14474978	      0.78792452	     25.64198080	      0.00000000	      0.00000000	      5.00520753	    -14.80425112	      9.75027481	     13.45592160	      0.23485014	     15.42545537	      0.00000000	      0.00000000	    -15.06576215	      0.74337877	     -5.44095357	    -10.37557720	    -18.14975480	     20.46590180	    106.29063902	     82.31854254	      0.00000000	      0.00000000	     -2.30492105	    -17.90590364	     29.07760902	     99.34997383	     53.12461213	      0.00000000	      0.00000000
